<?xml version="1.0" encoding="UTF-8" standalone="no"?>
<!DOCTYPE svg PUBLIC "-//W3C//DTD SVG 1.1//EN"
 "http://www.w3.org/Graphics/SVG/1.1/DTD/svg11.dtd">
<!-- Generated by graphviz version 3.0.0 (20220315.2325)
 -->
<!-- Title: Immunopipe Pages: 1 -->
<svg width="427pt" height="658pt"
 viewBox="0.00 0.00 427.00 658.00" xmlns="http://www.w3.org/2000/svg" xmlns:xlink="http://www.w3.org/1999/xlink">
<g id="graph0" class="graph" transform="scale(1 1) rotate(0) translate(4 654)">
<title>Immunopipe</title>
<polygon fill="white" stroke="transparent" points="-4,4 -4,-654 423,-654 423,4 -4,4"/>
<text text-anchor="middle" x="209.5" y="-634.8" font-family="Helvetica,sans-Serif" font-size="14.00">Immunopipe</text>
<text text-anchor="middle" x="209.5" y="-619.8" font-family="Helvetica,sans-Serif" font-size="14.00"> </text>
<!-- TCellSelection -->
<g id="node1" class="node">
<title>TCellSelection</title>
<path fill="none" stroke="black" d="M238,-396C238,-396 166,-396 166,-396 160,-396 154,-390 154,-384 154,-384 154,-372 154,-372 154,-366 160,-360 166,-360 166,-360 238,-360 238,-360 244,-360 250,-366 250,-372 250,-372 250,-384 250,-384 250,-390 244,-396 238,-396"/>
<text text-anchor="middle" x="202" y="-374.9" font-family="Helvetica,sans-Serif" font-size="12.00">TCellSelection</text>
</g>
<!-- ModuleScoreCalculator -->
<g id="node9" class="node">
<title>ModuleScoreCalculator</title>
<g id="a_node9"><a xlink:title="Calculate the module scores for each cell">
<path fill="none" stroke="black" d="M261.5,-324C261.5,-324 142.5,-324 142.5,-324 136.5,-324 130.5,-318 130.5,-312 130.5,-312 130.5,-300 130.5,-300 130.5,-294 136.5,-288 142.5,-288 142.5,-288 261.5,-288 261.5,-288 267.5,-288 273.5,-294 273.5,-300 273.5,-300 273.5,-312 273.5,-312 273.5,-318 267.5,-324 261.5,-324"/>
<text text-anchor="middle" x="202" y="-302.9" font-family="Helvetica,sans-Serif" font-size="12.00">ModuleScoreCalculator</text>
</a>
</g>
</g>
<!-- TCellSelection&#45;&gt;ModuleScoreCalculator -->
<g id="edge6" class="edge">
<title>TCellSelection&#45;&gt;ModuleScoreCalculator</title>
<path fill="none" stroke="black" d="M202,-359.7C202,-351.39 202,-341.28 202,-332.14"/>
<polygon fill="black" stroke="black" points="204.8,-332.1 202,-324.1 199.2,-332.1 204.8,-332.1"/>
</g>
<!-- SeuratClusteringOfAllCells -->
<g id="node2" class="node">
<title>SeuratClusteringOfAllCells</title>
<g id="a_node2"><a xlink:title="Cluster all cells, including T cells and non&#45;T cells using Seurat">
<path fill="none" stroke="black" d="M241.5,-468C241.5,-468 104.5,-468 104.5,-468 98.5,-468 92.5,-462 92.5,-456 92.5,-456 92.5,-444 92.5,-444 92.5,-438 98.5,-432 104.5,-432 104.5,-432 241.5,-432 241.5,-432 247.5,-432 253.5,-438 253.5,-444 253.5,-444 253.5,-456 253.5,-456 253.5,-462 247.5,-468 241.5,-468"/>
<text text-anchor="middle" x="173" y="-446.9" font-family="Helvetica,sans-Serif" font-size="12.00">SeuratClusteringOfAllCells</text>
</a>
</g>
</g>
<!-- SeuratClusteringOfAllCells&#45;&gt;TCellSelection -->
<g id="edge2" class="edge">
<title>SeuratClusteringOfAllCells&#45;&gt;TCellSelection</title>
<path fill="none" stroke="black" d="M180.17,-431.7C183.68,-423.22 187.97,-412.86 191.82,-403.58"/>
<polygon fill="black" stroke="black" points="194.44,-404.57 194.91,-396.1 189.27,-402.42 194.44,-404.57"/>
</g>
<!-- Immunarch -->
<g id="node3" class="node">
<title>Immunarch</title>
<g id="a_node3"><a xlink:title="Exploration of Single&#45;cell and Bulk T&#45;cell/Antibody Immune Repertoires">
<polygon fill="none" stroke="black" points="419,-36 343,-36 343,0 419,0 419,-36"/>
<text text-anchor="middle" x="381" y="-14.9" font-family="Helvetica,sans-Serif" font-size="12.00">Immunarch</text>
</a>
</g>
</g>
<!-- SeuratClustering -->
<g id="node4" class="node">
<title>SeuratClustering</title>
<g id="a_node4"><a xlink:title="Cluster all T cells or selected T cells selected by `TCellSelection`.">
<path fill="none" stroke="black" d="M243.5,-252C243.5,-252 160.5,-252 160.5,-252 154.5,-252 148.5,-246 148.5,-240 148.5,-240 148.5,-228 148.5,-228 148.5,-222 154.5,-216 160.5,-216 160.5,-216 243.5,-216 243.5,-216 249.5,-216 255.5,-222 255.5,-228 255.5,-228 255.5,-240 255.5,-240 255.5,-246 249.5,-252 243.5,-252"/>
<text text-anchor="middle" x="202" y="-230.9" font-family="Helvetica,sans-Serif" font-size="12.00">SeuratClustering</text>
</a>
</g>
</g>
<!-- SeuratSubClustering -->
<g id="node14" class="node">
<title>SeuratSubClustering</title>
<g id="a_node14"><a xlink:title="Sub&#45;cluster the selected T cells.">
<path fill="none" stroke="black" d="M254,-180C254,-180 150,-180 150,-180 144,-180 138,-174 138,-168 138,-168 138,-156 138,-156 138,-150 144,-144 150,-144 150,-144 254,-144 254,-144 260,-144 266,-150 266,-156 266,-156 266,-168 266,-168 266,-174 260,-180 254,-180"/>
<text text-anchor="middle" x="202" y="-158.9" font-family="Helvetica,sans-Serif" font-size="12.00">SeuratSubClustering</text>
</a>
</g>
</g>
<!-- SeuratClustering&#45;&gt;SeuratSubClustering -->
<g id="edge14" class="edge">
<title>SeuratClustering&#45;&gt;SeuratSubClustering</title>
<path fill="none" stroke="black" d="M202,-215.7C202,-207.39 202,-197.28 202,-188.14"/>
<polygon fill="black" stroke="black" points="204.8,-188.1 202,-180.1 199.2,-188.1 204.8,-188.1"/>
</g>
<!-- IntegratingTCR -->
<g id="node5" class="node">
<title>IntegratingTCR</title>
<g id="a_node5"><a xlink:title="Attach TCR clone information as meta columns to Seurat object">
<path fill="none" stroke="black" d="M323,-108C323,-108 249,-108 249,-108 243,-108 237,-102 237,-96 237,-96 237,-84 237,-84 237,-78 243,-72 249,-72 249,-72 323,-72 323,-72 329,-72 335,-78 335,-84 335,-84 335,-96 335,-96 335,-102 329,-108 323,-108"/>
<text text-anchor="middle" x="286" y="-86.9" font-family="Helvetica,sans-Serif" font-size="12.00">IntegratingTCR</text>
</a>
</g>
</g>
<!-- IntegratingTCR&#45;&gt;Immunarch -->
<g id="edge1" class="edge">
<title>IntegratingTCR&#45;&gt;Immunarch</title>
<path fill="none" stroke="black" d="M309.48,-71.7C322.02,-62.46 337.59,-50.98 351,-41.11"/>
<polygon fill="black" stroke="black" points="353.01,-43.1 357.79,-36.1 349.69,-38.6 353.01,-43.1"/>
</g>
<!-- MarkersFinder -->
<g id="node6" class="node">
<title>MarkersFinder</title>
<g id="a_node6"><a xlink:title="Find markers between different groups of cells">
<polygon fill="none" stroke="black" points="94,-36 0,-36 0,0 94,0 94,-36"/>
<text text-anchor="middle" x="47" y="-14.9" font-family="Helvetica,sans-Serif" font-size="12.00">MarkersFinder</text>
</a>
</g>
</g>
<!-- IntegratingTCR&#45;&gt;MarkersFinder -->
<g id="edge8" class="edge">
<title>IntegratingTCR&#45;&gt;MarkersFinder</title>
<path fill="none" stroke="black" d="M236.96,-74.61C233.93,-73.72 230.92,-72.85 228,-72 172.48,-55.87 158.44,-52.4 103,-36 102.63,-35.89 102.27,-35.78 101.9,-35.67"/>
<polygon fill="black" stroke="black" points="102.51,-32.93 94.04,-33.33 100.91,-38.3 102.51,-32.93"/>
</g>
<!-- SeuratClusterStats -->
<g id="node10" class="node">
<title>SeuratClusterStats</title>
<polygon fill="none" stroke="black" points="229.5,-36 112.5,-36 112.5,0 229.5,0 229.5,-36"/>
<text text-anchor="middle" x="171" y="-14.9" font-family="Helvetica,sans-Serif" font-size="12.00">SeuratClusterStats</text>
</g>
<!-- IntegratingTCR&#45;&gt;SeuratClusterStats -->
<g id="edge9" class="edge">
<title>IntegratingTCR&#45;&gt;SeuratClusterStats</title>
<path fill="none" stroke="black" d="M257.87,-71.88C242.27,-62.38 222.74,-50.5 206.15,-40.4"/>
<polygon fill="black" stroke="black" points="207.53,-37.96 199.24,-36.19 204.62,-42.74 207.53,-37.96"/>
</g>
<!-- RadarPlots -->
<g id="node12" class="node">
<title>RadarPlots</title>
<g id="a_node12"><a xlink:title="Radar plots for cell proportion in different clusters.">
<polygon fill="none" stroke="black" points="324.5,-36 247.5,-36 247.5,0 324.5,0 324.5,-36"/>
<text text-anchor="middle" x="286" y="-14.9" font-family="Helvetica,sans-Serif" font-size="12.00">RadarPlots</text>
</a>
</g>
</g>
<!-- IntegratingTCR&#45;&gt;RadarPlots -->
<g id="edge13" class="edge">
<title>IntegratingTCR&#45;&gt;RadarPlots</title>
<path fill="none" stroke="black" d="M286,-71.7C286,-63.39 286,-53.28 286,-44.14"/>
<polygon fill="black" stroke="black" points="288.8,-44.1 286,-36.1 283.2,-44.1 288.8,-44.1"/>
</g>
<!-- SampleInfo -->
<g id="node7" class="node">
<title>SampleInfo</title>
<g id="a_node7"><a xlink:title="List sample information and perform statistics">
<polygon fill="none" stroke="black" points="252,-612 184.93,-594 252,-576 319.07,-594 252,-612"/>
<text text-anchor="middle" x="252" y="-590.9" font-family="Helvetica,sans-Serif" font-size="12.00">SampleInfo</text>
</a>
</g>
</g>
<!-- ImmunarchLoading -->
<g id="node8" class="node">
<title>ImmunarchLoading</title>
<g id="a_node8"><a xlink:title="Immuarch &#45; Loading data">
<path fill="none" stroke="black" d="M378.5,-468C378.5,-468 283.5,-468 283.5,-468 277.5,-468 271.5,-462 271.5,-456 271.5,-456 271.5,-444 271.5,-444 271.5,-438 277.5,-432 283.5,-432 283.5,-432 378.5,-432 378.5,-432 384.5,-432 390.5,-438 390.5,-444 390.5,-444 390.5,-456 390.5,-456 390.5,-462 384.5,-468 378.5,-468"/>
<text text-anchor="middle" x="331" y="-446.9" font-family="Helvetica,sans-Serif" font-size="12.00">ImmunarchLoading</text>
</a>
</g>
</g>
<!-- SampleInfo&#45;&gt;ImmunarchLoading -->
<g id="edge4" class="edge">
<title>SampleInfo&#45;&gt;ImmunarchLoading</title>
<path fill="none" stroke="black" d="M260.31,-578.07C273.89,-553.65 300.99,-504.94 317.41,-475.43"/>
<polygon fill="black" stroke="black" points="319.9,-476.72 321.34,-468.37 315,-474 319.9,-476.72"/>
</g>
<!-- SeuratPreparing -->
<g id="node13" class="node">
<title>SeuratPreparing</title>
<g id="a_node13"><a xlink:title="Load, prepare and apply QC to data, using `Seurat`">
<path fill="none" stroke="black" d="M252,-540C252,-540 172,-540 172,-540 166,-540 160,-534 160,-528 160,-528 160,-516 160,-516 160,-510 166,-504 172,-504 172,-504 252,-504 252,-504 258,-504 264,-510 264,-516 264,-516 264,-528 264,-528 264,-534 258,-540 252,-540"/>
<text text-anchor="middle" x="212" y="-518.9" font-family="Helvetica,sans-Serif" font-size="12.00">SeuratPreparing</text>
</a>
</g>
</g>
<!-- SampleInfo&#45;&gt;SeuratPreparing -->
<g id="edge12" class="edge">
<title>SampleInfo&#45;&gt;SeuratPreparing</title>
<path fill="none" stroke="black" d="M243.52,-578.15C238.39,-569.18 231.72,-557.52 225.85,-547.23"/>
<polygon fill="black" stroke="black" points="228.14,-545.6 221.74,-540.04 223.28,-548.38 228.14,-545.6"/>
</g>
<!-- ImmunarchLoading&#45;&gt;TCellSelection -->
<g id="edge5" class="edge">
<title>ImmunarchLoading&#45;&gt;TCellSelection</title>
<path fill="none" stroke="black" d="M299.44,-431.88C281.8,-422.3 259.65,-410.28 240.93,-400.13"/>
<polygon fill="black" stroke="black" points="242.05,-397.54 233.68,-396.19 239.37,-402.47 242.05,-397.54"/>
</g>
<!-- ImmunarchLoading&#45;&gt;Immunarch -->
<g id="edge16" class="edge">
<title>ImmunarchLoading&#45;&gt;Immunarch</title>
<path fill="none" stroke="black" d="M339.3,-431.97C351.28,-405.77 372,-353.7 372,-307 372,-307 372,-307 372,-161 372,-120.03 375.78,-72.55 378.44,-44.19"/>
<polygon fill="black" stroke="black" points="381.24,-44.26 379.22,-36.03 375.67,-43.72 381.24,-44.26"/>
</g>
<!-- ImmunarchLoading&#45;&gt;IntegratingTCR -->
<g id="edge7" class="edge">
<title>ImmunarchLoading&#45;&gt;IntegratingTCR</title>
<path fill="none" stroke="black" d="M326.75,-431.63C320.61,-404.99 310,-352.36 310,-307 310,-307 310,-307 310,-233 310,-191.58 299.95,-144.31 292.86,-116.1"/>
<polygon fill="black" stroke="black" points="295.56,-115.38 290.86,-108.33 290.14,-116.77 295.56,-115.38"/>
</g>
<!-- ModuleScoreCalculator&#45;&gt;SeuratClustering -->
<g id="edge10" class="edge">
<title>ModuleScoreCalculator&#45;&gt;SeuratClustering</title>
<path fill="none" stroke="black" d="M202,-287.7C202,-279.39 202,-269.28 202,-260.14"/>
<polygon fill="black" stroke="black" points="204.8,-260.1 202,-252.1 199.2,-260.1 204.8,-260.1"/>
</g>
<!-- ClusterMarkers -->
<g id="node11" class="node">
<title>ClusterMarkers</title>
<g id="a_node11"><a xlink:title="Markers for clusters of all or selected T cells.">
<polygon fill="none" stroke="black" points="219,-108 121,-108 121,-72 219,-72 219,-108"/>
<text text-anchor="middle" x="170" y="-86.9" font-family="Helvetica,sans-Serif" font-size="12.00">ClusterMarkers</text>
</a>
</g>
</g>
<!-- SeuratPreparing&#45;&gt;SeuratClusteringOfAllCells -->
<g id="edge11" class="edge">
<title>SeuratPreparing&#45;&gt;SeuratClusteringOfAllCells</title>
<path fill="none" stroke="black" d="M202.36,-503.7C197.59,-495.14 191.75,-484.66 186.54,-475.3"/>
<polygon fill="black" stroke="black" points="188.87,-473.73 182.53,-468.1 183.98,-476.46 188.87,-473.73"/>
</g>
<!-- SeuratSubClustering&#45;&gt;IntegratingTCR -->
<g id="edge15" class="edge">
<title>SeuratSubClustering&#45;&gt;IntegratingTCR</title>
<path fill="none" stroke="black" d="M222.76,-143.7C233.75,-134.54 247.37,-123.19 259.15,-113.38"/>
<polygon fill="black" stroke="black" points="261.12,-115.38 265.47,-108.1 257.54,-111.07 261.12,-115.38"/>
</g>
<!-- SeuratSubClustering&#45;&gt;ClusterMarkers -->
<g id="edge3" class="edge">
<title>SeuratSubClustering&#45;&gt;ClusterMarkers</title>
<path fill="none" stroke="black" d="M194.09,-143.7C190.21,-135.22 185.48,-124.86 181.24,-115.58"/>
<polygon fill="black" stroke="black" points="183.69,-114.22 177.82,-108.1 178.6,-116.54 183.69,-114.22"/>
</g>
</g>
</svg>
