<?xml version="1.0" encoding="UTF-8" standalone="no"?>
<!DOCTYPE svg PUBLIC "-//W3C//DTD SVG 1.1//EN"
 "http://www.w3.org/Graphics/SVG/1.1/DTD/svg11.dtd">
<!-- Generated by graphviz version 7.0.5 (20221231.0122)
 -->
<!-- Title: Immunopipe Pages: 1 -->
<svg width="460pt" height="658pt"
 viewBox="0.00 0.00 460.00 658.00" xmlns="http://www.w3.org/2000/svg" xmlns:xlink="http://www.w3.org/1999/xlink">
<g id="graph0" class="graph" transform="scale(1 1) rotate(0) translate(4 654)">
<title>Immunopipe</title>
<polygon fill="white" stroke="none" points="-4,4 -4,-654 456,-654 456,4 -4,4"/>
<text text-anchor="middle" x="226" y="-634.8" font-family="Helvetica,sans-Serif" font-size="14.00">Immunopipe</text>
<text text-anchor="middle" x="226" y="-619.8" font-family="Helvetica,sans-Serif" font-size="14.00"> </text>
<!-- TCellSelection -->
<g id="node1" class="node">
<title>TCellSelection</title>
<path fill="none" stroke="black" d="M239,-396C239,-396 163,-396 163,-396 157,-396 151,-390 151,-384 151,-384 151,-372 151,-372 151,-366 157,-360 163,-360 163,-360 239,-360 239,-360 245,-360 251,-366 251,-372 251,-372 251,-384 251,-384 251,-390 245,-396 239,-396"/>
<text text-anchor="middle" x="201" y="-374.9" font-family="Helvetica,sans-Serif" font-size="12.00">TCellSelection</text>
</g>
<!-- ModuleScoreCalculator -->
<g id="node12" class="node">
<title>ModuleScoreCalculator</title>
<g id="a_node12"><a xlink:title="Calculate the module scores for each cell">
<path fill="none" stroke="black" d="M266.5,-324C266.5,-324 135.5,-324 135.5,-324 129.5,-324 123.5,-318 123.5,-312 123.5,-312 123.5,-300 123.5,-300 123.5,-294 129.5,-288 135.5,-288 135.5,-288 266.5,-288 266.5,-288 272.5,-288 278.5,-294 278.5,-300 278.5,-300 278.5,-312 278.5,-312 278.5,-318 272.5,-324 266.5,-324"/>
<text text-anchor="middle" x="201" y="-302.9" font-family="Helvetica,sans-Serif" font-size="12.00">ModuleScoreCalculator</text>
</a>
</g>
</g>
<!-- TCellSelection&#45;&gt;ModuleScoreCalculator -->
<g id="edge11" class="edge">
<title>TCellSelection&#45;&gt;ModuleScoreCalculator</title>
<path fill="none" stroke="black" d="M201,-359.7C201,-351.81 201,-342.3 201,-333.55"/>
<polygon fill="black" stroke="black" points="203.8,-333.62 201,-325.62 198.2,-333.62 203.8,-333.62"/>
</g>
<!-- SeuratPreparing -->
<g id="node2" class="node">
<title>SeuratPreparing</title>
<g id="a_node2"><a xlink:title="Load, prepare and apply QC to data, using `Seurat`">
<path fill="none" stroke="black" d="M256.5,-540C256.5,-540 167.5,-540 167.5,-540 161.5,-540 155.5,-534 155.5,-528 155.5,-528 155.5,-516 155.5,-516 155.5,-510 161.5,-504 167.5,-504 167.5,-504 256.5,-504 256.5,-504 262.5,-504 268.5,-510 268.5,-516 268.5,-516 268.5,-528 268.5,-528 268.5,-534 262.5,-540 256.5,-540"/>
<text text-anchor="middle" x="212" y="-518.9" font-family="Helvetica,sans-Serif" font-size="12.00">SeuratPreparing</text>
</a>
</g>
</g>
<!-- SeuratClusteringOfAllCells -->
<g id="node6" class="node">
<title>SeuratClusteringOfAllCells</title>
<g id="a_node6"><a xlink:title="Cluster all cells, including T cells and non&#45;T cells using Seurat">
<path fill="none" stroke="black" d="M243.5,-468C243.5,-468 94.5,-468 94.5,-468 88.5,-468 82.5,-462 82.5,-456 82.5,-456 82.5,-444 82.5,-444 82.5,-438 88.5,-432 94.5,-432 94.5,-432 243.5,-432 243.5,-432 249.5,-432 255.5,-438 255.5,-444 255.5,-444 255.5,-456 255.5,-456 255.5,-462 249.5,-468 243.5,-468"/>
<text text-anchor="middle" x="169" y="-446.9" font-family="Helvetica,sans-Serif" font-size="12.00">SeuratClusteringOfAllCells</text>
</a>
</g>
</g>
<!-- SeuratPreparing&#45;&gt;SeuratClusteringOfAllCells -->
<g id="edge10" class="edge">
<title>SeuratPreparing&#45;&gt;SeuratClusteringOfAllCells</title>
<path fill="none" stroke="black" d="M201.37,-503.7C196.27,-495.39 190.06,-485.28 184.44,-476.14"/>
<polygon fill="black" stroke="black" points="186.87,-474.75 180.3,-469.39 182.1,-477.68 186.87,-474.75"/>
</g>
<!-- MarkersFinder -->
<g id="node3" class="node">
<title>MarkersFinder</title>
<g id="a_node3"><a xlink:title="Find markers between different groups of cells">
<polygon fill="none" stroke="black" points="102,-36 0,-36 0,0 102,0 102,-36"/>
<text text-anchor="middle" x="51" y="-14.9" font-family="Helvetica,sans-Serif" font-size="12.00">MarkersFinder</text>
</a>
</g>
</g>
<!-- RadarPlots -->
<g id="node4" class="node">
<title>RadarPlots</title>
<g id="a_node4"><a xlink:title="Radar plots for cell proportion in different clusters.">
<polygon fill="none" stroke="black" points="201.5,-36 120.5,-36 120.5,0 201.5,0 201.5,-36"/>
<text text-anchor="middle" x="161" y="-14.9" font-family="Helvetica,sans-Serif" font-size="12.00">RadarPlots</text>
</a>
</g>
</g>
<!-- SampleInfo -->
<g id="node5" class="node">
<title>SampleInfo</title>
<g id="a_node5"><a xlink:title="List sample information and perform statistics">
<polygon fill="none" stroke="black" points="254,-612 180,-594 254,-576 328,-594 254,-612"/>
<text text-anchor="middle" x="254" y="-590.9" font-family="Helvetica,sans-Serif" font-size="12.00">SampleInfo</text>
</a>
</g>
</g>
<!-- SampleInfo&#45;&gt;SeuratPreparing -->
<g id="edge14" class="edge">
<title>SampleInfo&#45;&gt;SeuratPreparing</title>
<path fill="none" stroke="black" d="M244.89,-577.81C239.68,-569.14 233.03,-558.05 227.07,-548.12"/>
<polygon fill="black" stroke="black" points="229.57,-546.84 223.05,-541.42 224.77,-549.73 229.57,-546.84"/>
</g>
<!-- ImmunarchLoading -->
<g id="node8" class="node">
<title>ImmunarchLoading</title>
<g id="a_node8"><a xlink:title="Immuarch &#45; Loading data">
<path fill="none" stroke="black" d="M394.5,-468C394.5,-468 285.5,-468 285.5,-468 279.5,-468 273.5,-462 273.5,-456 273.5,-456 273.5,-444 273.5,-444 273.5,-438 279.5,-432 285.5,-432 285.5,-432 394.5,-432 394.5,-432 400.5,-432 406.5,-438 406.5,-444 406.5,-444 406.5,-456 406.5,-456 406.5,-462 400.5,-468 394.5,-468"/>
<text text-anchor="middle" x="340" y="-446.9" font-family="Helvetica,sans-Serif" font-size="12.00">ImmunarchLoading</text>
</a>
</g>
</g>
<!-- SampleInfo&#45;&gt;ImmunarchLoading -->
<g id="edge15" class="edge">
<title>SampleInfo&#45;&gt;ImmunarchLoading</title>
<path fill="none" stroke="black" d="M263.2,-577.8C277.94,-553.48 306.97,-505.53 324.82,-476.07"/>
<polygon fill="black" stroke="black" points="327,-477.88 328.75,-469.58 322.21,-474.97 327,-477.88"/>
</g>
<!-- SeuratClusteringOfAllCells&#45;&gt;TCellSelection -->
<g id="edge4" class="edge">
<title>SeuratClusteringOfAllCells&#45;&gt;TCellSelection</title>
<path fill="none" stroke="black" d="M176.91,-431.7C180.63,-423.56 185.14,-413.69 189.25,-404.7"/>
<polygon fill="black" stroke="black" points="191.77,-405.92 192.55,-397.48 186.68,-403.59 191.77,-405.92"/>
</g>
<!-- IntegratingTCR -->
<g id="node7" class="node">
<title>IntegratingTCR</title>
<g id="a_node7"><a xlink:title="Attach TCR clone information as meta columns to Seurat object">
<path fill="none" stroke="black" d="M325,-108C325,-108 243,-108 243,-108 237,-108 231,-102 231,-96 231,-96 231,-84 231,-84 231,-78 237,-72 243,-72 243,-72 325,-72 325,-72 331,-72 337,-78 337,-84 337,-84 337,-96 337,-96 337,-102 331,-108 325,-108"/>
<text text-anchor="middle" x="284" y="-86.9" font-family="Helvetica,sans-Serif" font-size="12.00">IntegratingTCR</text>
</a>
</g>
</g>
<!-- IntegratingTCR&#45;&gt;MarkersFinder -->
<g id="edge13" class="edge">
<title>IntegratingTCR&#45;&gt;MarkersFinder</title>
<path fill="none" stroke="black" d="M230.55,-72.94C194.85,-62.22 147.85,-48.1 110.89,-36.99"/>
<polygon fill="black" stroke="black" points="112.12,-34.44 103.66,-34.82 110.51,-39.8 112.12,-34.44"/>
</g>
<!-- IntegratingTCR&#45;&gt;RadarPlots -->
<g id="edge16" class="edge">
<title>IntegratingTCR&#45;&gt;RadarPlots</title>
<path fill="none" stroke="black" d="M253.28,-71.52C237.01,-62.26 216.88,-50.8 199.57,-40.95"/>
<polygon fill="black" stroke="black" points="200.98,-38.53 192.64,-37.01 198.21,-43.4 200.98,-38.53"/>
</g>
<!-- SeuratClusterStats -->
<g id="node9" class="node">
<title>SeuratClusterStats</title>
<polygon fill="none" stroke="black" points="348,-36 220,-36 220,0 348,0 348,-36"/>
<text text-anchor="middle" x="284" y="-14.9" font-family="Helvetica,sans-Serif" font-size="12.00">SeuratClusterStats</text>
</g>
<!-- IntegratingTCR&#45;&gt;SeuratClusterStats -->
<g id="edge7" class="edge">
<title>IntegratingTCR&#45;&gt;SeuratClusterStats</title>
<path fill="none" stroke="black" d="M284,-71.7C284,-63.81 284,-54.3 284,-45.55"/>
<polygon fill="black" stroke="black" points="286.8,-45.62 284,-37.62 281.2,-45.62 286.8,-45.62"/>
</g>
<!-- Immunarch -->
<g id="node11" class="node">
<title>Immunarch</title>
<g id="a_node11"><a xlink:title="Exploration of Single&#45;cell and Bulk T&#45;cell/Antibody Immune Repertoires">
<polygon fill="none" stroke="black" points="452,-36 366,-36 366,0 452,0 452,-36"/>
<text text-anchor="middle" x="409" y="-14.9" font-family="Helvetica,sans-Serif" font-size="12.00">Immunarch</text>
</a>
</g>
</g>
<!-- IntegratingTCR&#45;&gt;Immunarch -->
<g id="edge1" class="edge">
<title>IntegratingTCR&#45;&gt;Immunarch</title>
<path fill="none" stroke="black" d="M315.22,-71.52C331.9,-62.18 352.59,-50.59 370.28,-40.68"/>
<polygon fill="black" stroke="black" points="371.25,-43.35 376.86,-37 368.51,-38.47 371.25,-43.35"/>
</g>
<!-- ImmunarchLoading&#45;&gt;TCellSelection -->
<g id="edge2" class="edge">
<title>ImmunarchLoading&#45;&gt;TCellSelection</title>
<path fill="none" stroke="black" d="M305.28,-431.52C286.57,-422.09 263.32,-410.38 243.52,-400.41"/>
<polygon fill="black" stroke="black" points="245.03,-398.04 236.63,-396.94 242.51,-403.04 245.03,-398.04"/>
</g>
<!-- ImmunarchLoading&#45;&gt;IntegratingTCR -->
<g id="edge3" class="edge">
<title>ImmunarchLoading&#45;&gt;IntegratingTCR</title>
<path fill="none" stroke="black" d="M335.14,-431.67C328.13,-405.08 316,-352.5 316,-307 316,-307 316,-307 316,-233 316,-191.68 302.94,-145.21 293.51,-117.03"/>
<polygon fill="black" stroke="black" points="296.22,-116.29 290.97,-109.64 290.92,-118.11 296.22,-116.29"/>
</g>
<!-- ImmunarchLoading&#45;&gt;Immunarch -->
<g id="edge9" class="edge">
<title>ImmunarchLoading&#45;&gt;Immunarch</title>
<path fill="none" stroke="black" d="M349.74,-431.68C363.51,-405.53 387,-354 387,-307 387,-307 387,-307 387,-161 387,-120.39 395.9,-74 402.38,-45.61"/>
<polygon fill="black" stroke="black" points="405.1,-46.26 404.2,-37.83 399.65,-44.98 405.1,-46.26"/>
</g>
<!-- SeuratSubClustering -->
<g id="node10" class="node">
<title>SeuratSubClustering</title>
<g id="a_node10"><a xlink:title="Sub&#45;cluster the selected T cells.">
<path fill="none" stroke="black" d="M258.5,-180C258.5,-180 143.5,-180 143.5,-180 137.5,-180 131.5,-174 131.5,-168 131.5,-168 131.5,-156 131.5,-156 131.5,-150 137.5,-144 143.5,-144 143.5,-144 258.5,-144 258.5,-144 264.5,-144 270.5,-150 270.5,-156 270.5,-156 270.5,-168 270.5,-168 270.5,-174 264.5,-180 258.5,-180"/>
<text text-anchor="middle" x="201" y="-158.9" font-family="Helvetica,sans-Serif" font-size="12.00">SeuratSubClustering</text>
</a>
</g>
</g>
<!-- SeuratSubClustering&#45;&gt;IntegratingTCR -->
<g id="edge5" class="edge">
<title>SeuratSubClustering&#45;&gt;IntegratingTCR</title>
<path fill="none" stroke="black" d="M221.52,-143.7C231.99,-134.86 244.89,-123.99 256.24,-114.41"/>
<polygon fill="black" stroke="black" points="257.96,-116.62 262.27,-109.32 254.35,-112.34 257.96,-116.62"/>
</g>
<!-- ClusterMarkers -->
<g id="node14" class="node">
<title>ClusterMarkers</title>
<g id="a_node14"><a xlink:title="Markers for clusters of all or selected T cells.">
<polygon fill="none" stroke="black" points="212.5,-108 105.5,-108 105.5,-72 212.5,-72 212.5,-108"/>
<text text-anchor="middle" x="159" y="-86.9" font-family="Helvetica,sans-Serif" font-size="12.00">ClusterMarkers</text>
</a>
</g>
</g>
<!-- SeuratSubClustering&#45;&gt;ClusterMarkers -->
<g id="edge8" class="edge">
<title>SeuratSubClustering&#45;&gt;ClusterMarkers</title>
<path fill="none" stroke="black" d="M190.62,-143.7C185.63,-135.39 179.57,-125.28 174.08,-116.14"/>
<polygon fill="black" stroke="black" points="176.56,-114.82 170.04,-109.4 171.76,-117.7 176.56,-114.82"/>
</g>
<!-- SeuratClustering -->
<g id="node13" class="node">
<title>SeuratClustering</title>
<g id="a_node13"><a xlink:title="Cluster all T cells or selected T cells selected by `TCellSelection`.">
<path fill="none" stroke="black" d="M247,-252C247,-252 155,-252 155,-252 149,-252 143,-246 143,-240 143,-240 143,-228 143,-228 143,-222 149,-216 155,-216 155,-216 247,-216 247,-216 253,-216 259,-222 259,-228 259,-228 259,-240 259,-240 259,-246 253,-252 247,-252"/>
<text text-anchor="middle" x="201" y="-230.9" font-family="Helvetica,sans-Serif" font-size="12.00">SeuratClustering</text>
</a>
</g>
</g>
<!-- ModuleScoreCalculator&#45;&gt;SeuratClustering -->
<g id="edge12" class="edge">
<title>ModuleScoreCalculator&#45;&gt;SeuratClustering</title>
<path fill="none" stroke="black" d="M201,-287.7C201,-279.81 201,-270.3 201,-261.55"/>
<polygon fill="black" stroke="black" points="203.8,-261.62 201,-253.62 198.2,-261.62 203.8,-261.62"/>
</g>
<!-- SeuratClustering&#45;&gt;SeuratSubClustering -->
<g id="edge6" class="edge">
<title>SeuratClustering&#45;&gt;SeuratSubClustering</title>
<path fill="none" stroke="black" d="M201,-215.7C201,-207.81 201,-198.3 201,-189.55"/>
<polygon fill="black" stroke="black" points="203.8,-189.62 201,-181.62 198.2,-189.62 203.8,-189.62"/>
</g>
</g>
</svg>
