<?xml version="1.0" encoding="UTF-8" standalone="no"?>
<!DOCTYPE svg PUBLIC "-//W3C//DTD SVG 1.1//EN"
 "http://www.w3.org/Graphics/SVG/1.1/DTD/svg11.dtd">
<!-- Generated by graphviz version 12.0.0 (20240803.0821)
 -->
<!-- Title: Immunopipe Pages: 1 -->
<svg width="457pt" height="663pt"
 viewBox="0.00 0.00 456.75 662.50" xmlns="http://www.w3.org/2000/svg" xmlns:xlink="http://www.w3.org/1999/xlink">
<g id="graph0" class="graph" transform="scale(1 1) rotate(0) translate(4 658.5)">
<title>Immunopipe</title>
<polygon fill="white" stroke="none" points="-4,4 -4,-658.5 452.75,-658.5 452.75,4 -4,4"/>
<text text-anchor="middle" x="224.38" y="-637.2" font-family="Helvetica,sans-Serif" font-size="14.00">Immunopipe</text>
<text text-anchor="middle" x="224.38" y="-619.95" font-family="Helvetica,sans-Serif" font-size="14.00"> </text>
<!-- IntegratingTCR -->
<g id="node1" class="node">
<title>IntegratingTCR</title>
<g id="a_node1"><a xlink:title="Attach TCR clone information as meta columns to Seurat object">
<path fill="none" stroke="black" d="M194.12,-108C194.12,-108 112.88,-108 112.88,-108 106.88,-108 100.88,-102 100.88,-96 100.88,-96 100.88,-84 100.88,-84 100.88,-78 106.88,-72 112.88,-72 112.88,-72 194.12,-72 194.12,-72 200.12,-72 206.12,-78 206.12,-84 206.12,-84 206.12,-96 206.12,-96 206.12,-102 200.12,-108 194.12,-108"/>
<text text-anchor="middle" x="153.5" y="-85.72" font-family="Helvetica,sans-Serif" font-size="12.00">IntegratingTCR</text>
</a>
</g>
</g>
<!-- SeuratClusterStats -->
<g id="node3" class="node">
<title>SeuratClusterStats</title>
<polygon fill="none" stroke="black" points="350.38,-36 222.62,-36 222.62,0 350.38,0 350.38,-36"/>
<text text-anchor="middle" x="286.5" y="-13.72" font-family="Helvetica,sans-Serif" font-size="12.00">SeuratClusterStats</text>
</g>
<!-- IntegratingTCR&#45;&gt;SeuratClusterStats -->
<g id="edge10" class="edge">
<title>IntegratingTCR&#45;&gt;SeuratClusterStats</title>
<path fill="none" stroke="black" d="M186.72,-71.52C204.47,-62.18 226.48,-50.59 245.3,-40.68"/>
<polygon fill="black" stroke="black" points="246.59,-43.17 252.37,-36.97 243.98,-38.21 246.59,-43.17"/>
</g>
<!-- RadarPlots -->
<g id="node7" class="node">
<title>RadarPlots</title>
<g id="a_node7"><a xlink:title="Radar plots for cell proportion in different clusters.">
<polygon fill="none" stroke="black" points="448.75,-36 368.25,-36 368.25,0 448.75,0 448.75,-36"/>
<text text-anchor="middle" x="408.5" y="-13.72" font-family="Helvetica,sans-Serif" font-size="12.00">RadarPlots</text>
</a>
</g>
</g>
<!-- IntegratingTCR&#45;&gt;RadarPlots -->
<g id="edge9" class="edge">
<title>IntegratingTCR&#45;&gt;RadarPlots</title>
<path fill="none" stroke="black" d="M206.58,-74.36C209.6,-73.56 212.58,-72.76 215.5,-72 276.57,-56 294.73,-54.9 359,-36.03"/>
<polygon fill="black" stroke="black" points="359.62,-38.77 366.5,-33.81 358.03,-33.4 359.62,-38.77"/>
</g>
<!-- MarkersFinder -->
<g id="node8" class="node">
<title>MarkersFinder</title>
<g id="a_node8"><a xlink:title="Find markers between different groups of cells">
<polygon fill="none" stroke="black" points="204.25,-36 102.75,-36 102.75,0 204.25,0 204.25,-36"/>
<text text-anchor="middle" x="153.5" y="-13.72" font-family="Helvetica,sans-Serif" font-size="12.00">MarkersFinder</text>
</a>
</g>
</g>
<!-- IntegratingTCR&#45;&gt;MarkersFinder -->
<g id="edge7" class="edge">
<title>IntegratingTCR&#45;&gt;MarkersFinder</title>
<path fill="none" stroke="black" d="M153.5,-71.7C153.5,-63.81 153.5,-54.3 153.5,-45.55"/>
<polygon fill="black" stroke="black" points="156.3,-45.62 153.5,-37.62 150.7,-45.62 156.3,-45.62"/>
</g>
<!-- Immunarch -->
<g id="node11" class="node">
<title>Immunarch</title>
<g id="a_node11"><a xlink:title="Exploration of Single&#45;cell and Bulk T&#45;cell/Antibody Immune Repertoires">
<polygon fill="none" stroke="black" points="85,-36 0,-36 0,0 85,0 85,-36"/>
<text text-anchor="middle" x="42.5" y="-13.72" font-family="Helvetica,sans-Serif" font-size="12.00">Immunarch</text>
</a>
</g>
</g>
<!-- IntegratingTCR&#45;&gt;Immunarch -->
<g id="edge13" class="edge">
<title>IntegratingTCR&#45;&gt;Immunarch</title>
<path fill="none" stroke="black" d="M125.78,-71.52C111.23,-62.34 93.26,-51.01 77.73,-41.22"/>
<polygon fill="black" stroke="black" points="79.41,-38.97 71.15,-37.07 76.42,-43.7 79.41,-38.97"/>
</g>
<!-- ModuleScoreCalculator -->
<g id="node2" class="node">
<title>ModuleScoreCalculator</title>
<g id="a_node2"><a xlink:title="Calculate the module scores for each cell">
<path fill="none" stroke="black" d="M299.5,-324C299.5,-324 169.5,-324 169.5,-324 163.5,-324 157.5,-318 157.5,-312 157.5,-312 157.5,-300 157.5,-300 157.5,-294 163.5,-288 169.5,-288 169.5,-288 299.5,-288 299.5,-288 305.5,-288 311.5,-294 311.5,-300 311.5,-300 311.5,-312 311.5,-312 311.5,-318 305.5,-324 299.5,-324"/>
<text text-anchor="middle" x="234.5" y="-301.73" font-family="Helvetica,sans-Serif" font-size="12.00">ModuleScoreCalculator</text>
</a>
</g>
</g>
<!-- SeuratClustering -->
<g id="node12" class="node">
<title>SeuratClustering</title>
<g id="a_node12"><a xlink:title="Cluster all T cells or selected T cells selected by `TCellSelection`.">
<path fill="none" stroke="black" d="M280.38,-252C280.38,-252 188.62,-252 188.62,-252 182.62,-252 176.62,-246 176.62,-240 176.62,-240 176.62,-228 176.62,-228 176.62,-222 182.62,-216 188.62,-216 188.62,-216 280.38,-216 280.38,-216 286.38,-216 292.38,-222 292.38,-228 292.38,-228 292.38,-240 292.38,-240 292.38,-246 286.38,-252 280.38,-252"/>
<text text-anchor="middle" x="234.5" y="-229.72" font-family="Helvetica,sans-Serif" font-size="12.00">SeuratClustering</text>
</a>
</g>
</g>
<!-- ModuleScoreCalculator&#45;&gt;SeuratClustering -->
<g id="edge15" class="edge">
<title>ModuleScoreCalculator&#45;&gt;SeuratClustering</title>
<path fill="none" stroke="black" d="M234.5,-287.7C234.5,-279.81 234.5,-270.3 234.5,-261.55"/>
<polygon fill="black" stroke="black" points="237.3,-261.62 234.5,-253.62 231.7,-261.62 237.3,-261.62"/>
</g>
<!-- TCellSelection -->
<g id="node4" class="node">
<title>TCellSelection</title>
<path fill="none" stroke="black" d="M272.12,-396C272.12,-396 196.88,-396 196.88,-396 190.88,-396 184.88,-390 184.88,-384 184.88,-384 184.88,-372 184.88,-372 184.88,-366 190.88,-360 196.88,-360 196.88,-360 272.12,-360 272.12,-360 278.12,-360 284.12,-366 284.12,-372 284.12,-372 284.12,-384 284.12,-384 284.12,-390 278.12,-396 272.12,-396"/>
<text text-anchor="middle" x="234.5" y="-373.73" font-family="Helvetica,sans-Serif" font-size="12.00">TCellSelection</text>
</g>
<!-- TCellSelection&#45;&gt;ModuleScoreCalculator -->
<g id="edge12" class="edge">
<title>TCellSelection&#45;&gt;ModuleScoreCalculator</title>
<path fill="none" stroke="black" d="M234.5,-359.7C234.5,-351.81 234.5,-342.3 234.5,-333.55"/>
<polygon fill="black" stroke="black" points="237.3,-333.62 234.5,-325.62 231.7,-333.62 237.3,-333.62"/>
</g>
<!-- ImmunarchLoading -->
<g id="node5" class="node">
<title>ImmunarchLoading</title>
<g id="a_node5"><a xlink:title="Immuarch &#45; Loading data">
<path fill="none" stroke="black" d="M130.62,-468C130.62,-468 22.38,-468 22.38,-468 16.38,-468 10.38,-462 10.38,-456 10.38,-456 10.38,-444 10.38,-444 10.38,-438 16.38,-432 22.38,-432 22.38,-432 130.62,-432 130.62,-432 136.62,-432 142.62,-438 142.62,-444 142.62,-444 142.62,-456 142.62,-456 142.62,-462 136.62,-468 130.62,-468"/>
<text text-anchor="middle" x="76.5" y="-445.73" font-family="Helvetica,sans-Serif" font-size="12.00">ImmunarchLoading</text>
</a>
</g>
</g>
<!-- ImmunarchLoading&#45;&gt;IntegratingTCR -->
<g id="edge11" class="edge">
<title>ImmunarchLoading&#45;&gt;IntegratingTCR</title>
<path fill="none" stroke="black" d="M85.2,-431.56C97.5,-405.25 118.5,-353.53 118.5,-307 118.5,-307 118.5,-307 118.5,-233 118.5,-191.48 132.78,-145.07 143.1,-116.95"/>
<polygon fill="black" stroke="black" points="145.68,-118.04 145.88,-109.57 140.44,-116.06 145.68,-118.04"/>
</g>
<!-- ImmunarchLoading&#45;&gt;TCellSelection -->
<g id="edge8" class="edge">
<title>ImmunarchLoading&#45;&gt;TCellSelection</title>
<path fill="none" stroke="black" d="M115.96,-431.52C137.44,-422 164.17,-410.16 186.81,-400.13"/>
<polygon fill="black" stroke="black" points="187.7,-402.8 193.88,-396.99 185.43,-397.68 187.7,-402.8"/>
</g>
<!-- ImmunarchLoading&#45;&gt;Immunarch -->
<g id="edge3" class="edge">
<title>ImmunarchLoading&#45;&gt;Immunarch</title>
<path fill="none" stroke="black" d="M72.66,-431.61C67.1,-404.94 57.5,-352.27 57.5,-307 57.5,-307 57.5,-307 57.5,-161 57.5,-120.64 51.43,-74.18 47.02,-45.71"/>
<polygon fill="black" stroke="black" points="49.8,-45.38 45.77,-37.92 44.27,-46.26 49.8,-45.38"/>
</g>
<!-- SampleInfo -->
<g id="node6" class="node">
<title>SampleInfo</title>
<g id="a_node6"><a xlink:title="List sample information and perform statistics">
<polygon fill="none" stroke="black" points="161.5,-612 85.72,-594 161.5,-576 237.28,-594 161.5,-612"/>
<text text-anchor="middle" x="161.5" y="-589.73" font-family="Helvetica,sans-Serif" font-size="12.00">SampleInfo</text>
</a>
</g>
</g>
<!-- SampleInfo&#45;&gt;ImmunarchLoading -->
<g id="edge16" class="edge">
<title>SampleInfo&#45;&gt;ImmunarchLoading</title>
<path fill="none" stroke="black" d="M152.4,-577.8C137.84,-553.48 109.14,-505.53 91.51,-476.07"/>
<polygon fill="black" stroke="black" points="94.14,-475.01 87.63,-469.59 89.33,-477.89 94.14,-475.01"/>
</g>
<!-- SeuratPreparing -->
<g id="node9" class="node">
<title>SeuratPreparing</title>
<g id="a_node9"><a xlink:title="Load, prepare and apply QC to data, using `Seurat`">
<path fill="none" stroke="black" d="M268.88,-540C268.88,-540 180.12,-540 180.12,-540 174.12,-540 168.12,-534 168.12,-528 168.12,-528 168.12,-516 168.12,-516 168.12,-510 174.12,-504 180.12,-504 180.12,-504 268.88,-504 268.88,-504 274.88,-504 280.88,-510 280.88,-516 280.88,-516 280.88,-528 280.88,-528 280.88,-534 274.88,-540 268.88,-540"/>
<text text-anchor="middle" x="224.5" y="-517.73" font-family="Helvetica,sans-Serif" font-size="12.00">SeuratPreparing</text>
</a>
</g>
</g>
<!-- SampleInfo&#45;&gt;SeuratPreparing -->
<g id="edge1" class="edge">
<title>SampleInfo&#45;&gt;SeuratPreparing</title>
<path fill="none" stroke="black" d="M174.25,-578.83C182.37,-569.81 193.11,-557.88 202.57,-547.37"/>
<polygon fill="black" stroke="black" points="204.59,-549.31 207.86,-541.49 200.42,-545.57 204.59,-549.31"/>
</g>
<!-- SeuratClusteringOfAllCells -->
<g id="node13" class="node">
<title>SeuratClusteringOfAllCells</title>
<g id="a_node13"><a xlink:title="Cluster all cells, including T cells and non&#45;T cells using Seurat">
<path fill="none" stroke="black" d="M320.5,-468C320.5,-468 172.5,-468 172.5,-468 166.5,-468 160.5,-462 160.5,-456 160.5,-456 160.5,-444 160.5,-444 160.5,-438 166.5,-432 172.5,-432 172.5,-432 320.5,-432 320.5,-432 326.5,-432 332.5,-438 332.5,-444 332.5,-444 332.5,-456 332.5,-456 332.5,-462 326.5,-468 320.5,-468"/>
<text text-anchor="middle" x="246.5" y="-445.73" font-family="Helvetica,sans-Serif" font-size="12.00">SeuratClusteringOfAllCells</text>
</a>
</g>
</g>
<!-- SeuratPreparing&#45;&gt;SeuratClusteringOfAllCells -->
<g id="edge14" class="edge">
<title>SeuratPreparing&#45;&gt;SeuratClusteringOfAllCells</title>
<path fill="none" stroke="black" d="M229.94,-503.7C232.47,-495.64 235.53,-485.89 238.33,-476.98"/>
<polygon fill="black" stroke="black" points="240.94,-478.02 240.67,-469.55 235.6,-476.34 240.94,-478.02"/>
</g>
<!-- SeuratSubClustering -->
<g id="node10" class="node">
<title>SeuratSubClustering</title>
<g id="a_node10"><a xlink:title="Sub&#45;cluster the selected T cells.">
<path fill="none" stroke="black" d="M291.62,-180C291.62,-180 177.38,-180 177.38,-180 171.38,-180 165.38,-174 165.38,-168 165.38,-168 165.38,-156 165.38,-156 165.38,-150 171.38,-144 177.38,-144 177.38,-144 291.62,-144 291.62,-144 297.62,-144 303.62,-150 303.62,-156 303.62,-156 303.62,-168 303.62,-168 303.62,-174 297.62,-180 291.62,-180"/>
<text text-anchor="middle" x="234.5" y="-157.72" font-family="Helvetica,sans-Serif" font-size="12.00">SeuratSubClustering</text>
</a>
</g>
</g>
<!-- SeuratSubClustering&#45;&gt;IntegratingTCR -->
<g id="edge6" class="edge">
<title>SeuratSubClustering&#45;&gt;IntegratingTCR</title>
<path fill="none" stroke="black" d="M214.48,-143.7C204.26,-134.86 191.67,-123.99 180.59,-114.41"/>
<polygon fill="black" stroke="black" points="182.6,-112.45 174.72,-109.34 178.94,-116.69 182.6,-112.45"/>
</g>
<!-- ClusterMarkers -->
<g id="node14" class="node">
<title>ClusterMarkers</title>
<g id="a_node14"><a xlink:title="Markers for clusters of all or selected T cells.">
<polygon fill="none" stroke="black" points="330.88,-108 224.12,-108 224.12,-72 330.88,-72 330.88,-108"/>
<text text-anchor="middle" x="277.5" y="-85.72" font-family="Helvetica,sans-Serif" font-size="12.00">ClusterMarkers</text>
</a>
</g>
</g>
<!-- SeuratSubClustering&#45;&gt;ClusterMarkers -->
<g id="edge5" class="edge">
<title>SeuratSubClustering&#45;&gt;ClusterMarkers</title>
<path fill="none" stroke="black" d="M245.13,-143.7C250.23,-135.39 256.44,-125.28 262.06,-116.14"/>
<polygon fill="black" stroke="black" points="264.4,-117.68 266.2,-109.39 259.63,-114.75 264.4,-117.68"/>
</g>
<!-- SeuratClustering&#45;&gt;SeuratSubClustering -->
<g id="edge2" class="edge">
<title>SeuratClustering&#45;&gt;SeuratSubClustering</title>
<path fill="none" stroke="black" d="M234.5,-215.7C234.5,-207.81 234.5,-198.3 234.5,-189.55"/>
<polygon fill="black" stroke="black" points="237.3,-189.62 234.5,-181.62 231.7,-189.62 237.3,-189.62"/>
</g>
<!-- SeuratClusteringOfAllCells&#45;&gt;TCellSelection -->
<g id="edge4" class="edge">
<title>SeuratClusteringOfAllCells&#45;&gt;TCellSelection</title>
<path fill="none" stroke="black" d="M243.53,-431.7C242.17,-423.73 240.52,-414.1 239,-405.26"/>
<polygon fill="black" stroke="black" points="241.8,-405.01 237.69,-397.6 236.28,-405.95 241.8,-405.01"/>
</g>
</g>
</svg>
